<?xml version="1.0" encoding="UTF-8"?> <svg xmlns="http://www.w3.org/2000/svg" xmlns:xlink="http://www.w3.org/1999/xlink" width="512" zoomAndPan="magnify" viewBox="0 0 384 383.999986" height="512" preserveAspectRatio="xMidYMid meet" version="1.0"><defs><clipPath id="893c7e3972"><path d="M 67.75 84.300781 L 316 84.300781 L 316 384 L 67.75 384 Z M 67.75 84.300781 " clip-rule="nonzero"></path></clipPath><clipPath id="bb53ec32a3"><path d="M 130.882812 0 L 253.132812 0 L 253.132812 122.25 L 130.882812 122.25 Z M 130.882812 0 " clip-rule="nonzero"></path></clipPath></defs><g clip-path="url(#893c7e3972)"><path fill="#000000" d="M 287.933594 95.488281 L 276.8125 84.34375 L 191.867188 169.457031 L 106.9375 84.34375 L 95.816406 95.488281 C 77.71875 113.621094 67.75 137.726562 67.75 163.371094 C 67.75 189.015625 77.71875 213.125 95.816406 231.257812 L 113.914062 249.390625 C 102.324219 265.566406 96.078125 284.914062 96.078125 305.230469 C 96.078125 330.875 106.046875 354.980469 124.144531 373.117188 L 135.265625 384.257812 L 287.933594 231.257812 C 306.03125 213.125 316 189.015625 316 163.371094 C 316 137.726562 306.03125 113.621094 287.933594 95.488281 Z M 118.058594 208.972656 C 105.898438 196.789062 99.207031 180.601562 99.207031 163.371094 C 99.207031 151.535156 102.371094 140.183594 108.296875 130.292969 L 169.628906 191.742188 L 135.238281 226.203125 Z M 265.691406 208.972656 L 136.613281 338.3125 C 130.6875 328.421875 127.519531 317.066406 127.519531 305.230469 C 127.519531 288 134.214844 271.8125 146.371094 259.628906 L 203 202.886719 L 275.453125 130.292969 C 281.375 140.183594 284.542969 151.535156 284.542969 163.371094 C 284.542969 180.601562 277.839844 196.789062 265.691406 208.972656 Z M 265.691406 208.972656 " fill-opacity="1" fill-rule="nonzero"></path></g><g clip-path="url(#bb53ec32a3)"><path fill="#000000" d="M 192.007812 0 C 225.765625 0 253.132812 27.367188 253.132812 61.125 C 253.132812 94.882812 225.765625 122.25 192.007812 122.25 C 158.25 122.25 130.882812 94.882812 130.882812 61.125 C 130.882812 27.367188 158.25 0 192.007812 0 Z M 192.007812 0 " fill-opacity="1" fill-rule="evenodd"></path></g></svg> 